<svg xmlns="http://www.w3.org/2000/svg" data-name="Layer 1" viewBox="0 0 100 125" x="0px" y="0px"><title>Artboard 98</title><path fill="#00a65a" d="M70.69,92.19V99H63.09V92.19a1.3,1.3,0,0,0-1.3-1.3h-8V99H46.2V90.89h-8a1.3,1.3,0,0,0-1.3,1.3V99H29.31V92.19A8.9,8.9,0,0,1,38.2,83.3h8V75.37H53.8V83.3h8A8.9,8.9,0,0,1,70.69,92.19ZM12.22,42A6.87,6.87,0,0,0,11,55.6v9.52A3.92,3.92,0,0,0,14.91,69h4.19V48.84A6.87,6.87,0,0,0,12.22,42Zm75.56,0a6.87,6.87,0,0,0-6.87,6.87V69h4.19A3.92,3.92,0,0,0,89,65.11V55.6A6.87,6.87,0,0,0,87.78,42ZM68.92,55.84a102.24,102.24,0,0,0-37.84,0,8.82,8.82,0,0,0-7.19,8.67A4.53,4.53,0,0,0,28.42,69H71.57a4.53,4.53,0,0,0,4.53-4.53A8.82,8.82,0,0,0,68.92,55.84ZM61.91,1H38.09A15.66,15.66,0,0,0,22.55,18.61l4,32.06h0a15.09,15.09,0,0,1,1.52-.59l.24-.08a15.12,15.12,0,0,1,1.65-.42,108.4,108.4,0,0,1,40.12,0,15.11,15.11,0,0,1,1.65.42l.24.08a15.12,15.12,0,0,1,1.52.59l4-32.06A15.66,15.66,0,0,0,61.91,1Z"/></svg>
