<svg xmlns="http://www.w3.org/2000/svg" width="2100" height="186" viewBox="0 0 700 62">
  <metadata><?xpacket begin="﻿" id="W5M0MpCehiHzreSzNTczkc9d"?>
<x:xmpmeta xmlns:x="adobe:ns:meta/" x:xmptk="Adobe XMP Core 5.6-c142 79.160924, 2017/07/13-01:06:39        ">
   <rdf:RDF xmlns:rdf="http://www.w3.org/1999/02/22-rdf-syntax-ns#">
      <rdf:Description rdf:about=""/>
   </rdf:RDF>
</x:xmpmeta>
                                                                                                    
<?xpacket end="w"?></metadata>
<defs>
    <style>
      .cls-1 {
        font-size: 30px;
        font-family: Ebrima;
        font-weight: 700;
      }

      .cls-2 {
        fill-rule: evenodd;
      }
    </style>
  </defs>
  <text id="POWERED_BY_ARFA_-_2018" data-name="POWERED BY ARFA - 2018" class="cls-1" transform="translate(70.638 47.251) scale(1.617 1.497)">POWERED BY ARFA - 2018</text>
  <path class="cls-2" d="M38.245,11.992c11.7,0,20.9,8.709,20.9,19.439,0,10.855-9.2,19.562-20.968,19.562C26.334,50.993,17,42.286,17,31.431c0-10.73,9.335-19.439,21.176-19.439h0.071Zm-0.139,2.59c-9.962,0-17.623,7.445-17.623,17.038,0,9.4,7.662,16.787,17.691,16.787A16.922,16.922,0,0,0,55.661,31.431c0-9.4-7.663-16.849-17.486-16.849H38.107Zm8.568,9.655a16.326,16.326,0,0,0-6.758-1.453c-6.547,0-9.753,3.788-9.753,8.837,0,4.921,3.414,8.9,9.823,8.9a14.713,14.713,0,0,0,7.035-1.64l0.836,2.4a17.209,17.209,0,0,1-8.568,1.955c-8.081,0-12.749-5.05-12.749-11.422,0-7.194,6.27-11.739,13.3-11.739,3.624,0,6.689.948,7.664,1.706Z"/>
</svg>
